<mxfile host="app.diagrams.net" modified="2023-10-28T10:00:38.252Z" agent="Mozilla/5.0 (Windows NT 10.0; Win64; x64) AppleWebKit/537.36 (KHTML, like Gecko) Chrome/118.0.0.0 Safari/537.36" etag="aupqjT3weTe2jQFEb_ws" version="22.0.8" type="github">
  <diagram name="Страница — 1" id="lluNUwB5F5Gs3y7PKJDF">
    <mxGraphModel dx="1434" dy="758" grid="1" gridSize="10" guides="1" tooltips="1" connect="1" arrows="1" fold="1" page="1" pageScale="1" pageWidth="827" pageHeight="1169" math="0" shadow="0">
      <root>
        <mxCell id="0" />
        <mxCell id="1" parent="0" />
        <mxCell id="oWh2K4CV3fr-__WwhOW4-5" value="" style="edgeStyle=orthogonalEdgeStyle;rounded=0;orthogonalLoop=1;jettySize=auto;html=1;" edge="1" parent="1" source="oWh2K4CV3fr-__WwhOW4-2" target="oWh2K4CV3fr-__WwhOW4-3">
          <mxGeometry relative="1" as="geometry" />
        </mxCell>
        <mxCell id="oWh2K4CV3fr-__WwhOW4-2" value="Нажата &lt;br&gt;кнопка Старт" style="rounded=0;whiteSpace=wrap;html=1;" vertex="1" parent="1">
          <mxGeometry x="90" y="60" width="120" height="90" as="geometry" />
        </mxCell>
        <mxCell id="oWh2K4CV3fr-__WwhOW4-3" value="Выведено приветственное сообщение" style="rounded=0;whiteSpace=wrap;html=1;" vertex="1" parent="1">
          <mxGeometry x="294" y="60" width="120" height="90" as="geometry" />
        </mxCell>
        <mxCell id="oWh2K4CV3fr-__WwhOW4-7" value="" style="edgeStyle=orthogonalEdgeStyle;rounded=0;orthogonalLoop=1;jettySize=auto;html=1;" edge="1" parent="1" source="oWh2K4CV3fr-__WwhOW4-4" target="oWh2K4CV3fr-__WwhOW4-6">
          <mxGeometry relative="1" as="geometry" />
        </mxCell>
        <mxCell id="oWh2K4CV3fr-__WwhOW4-4" value="Нажата кнопка профиль" style="rounded=0;whiteSpace=wrap;html=1;" vertex="1" parent="1">
          <mxGeometry x="90" y="240" width="120" height="90" as="geometry" />
        </mxCell>
        <mxCell id="oWh2K4CV3fr-__WwhOW4-6" value="Выведена информация о профиле" style="rounded=0;whiteSpace=wrap;html=1;" vertex="1" parent="1">
          <mxGeometry x="294" y="240" width="120" height="90" as="geometry" />
        </mxCell>
        <mxCell id="oWh2K4CV3fr-__WwhOW4-8" value="" style="edgeStyle=orthogonalEdgeStyle;rounded=0;orthogonalLoop=1;jettySize=auto;html=1;" edge="1" source="oWh2K4CV3fr-__WwhOW4-9" target="oWh2K4CV3fr-__WwhOW4-10" parent="1">
          <mxGeometry relative="1" as="geometry" />
        </mxCell>
        <mxCell id="oWh2K4CV3fr-__WwhOW4-9" value="Нажата кнопка профиль" style="rounded=0;whiteSpace=wrap;html=1;" vertex="1" parent="1">
          <mxGeometry x="90" y="400" width="120" height="90" as="geometry" />
        </mxCell>
        <mxCell id="oWh2K4CV3fr-__WwhOW4-10" value="Выведена общая информация" style="rounded=0;whiteSpace=wrap;html=1;" vertex="1" parent="1">
          <mxGeometry x="294" y="400" width="120" height="90" as="geometry" />
        </mxCell>
      </root>
    </mxGraphModel>
  </diagram>
</mxfile>
